<svg xmlns="http://www.w3.org/2000/svg" width="32" height="14" viewBox="0 0 32 14">
  <path fill="#FFF" d="M1312.84155,503.405 C1313.00874,503.545 1313.25951,503.615 1313.4267,503.615 C1313.59388,503.615 1313.84466,503.545 1314.01184,503.405 C1314.34621,503.125 1314.34621,502.705 1314.01184,502.425 L1308.32757,497.735 L1335.29398,497.735 C1335.79553,497.735 1336.1299,497.455 1336.1299,497.035 C1336.1299,496.615 1335.79553,496.335 1335.29398,496.335 L1308.32757,496.335 L1314.01184,491.575 C1314.34621,491.295 1314.34621,490.875 1314.01184,490.595 C1313.67748,490.315 1313.17592,490.315 1312.84155,490.595 L1305.73621,496.545 C1305.40184,496.825 1305.40184,497.245 1305.73621,497.525 L1312.84155,503.405 Z" transform="matrix(-1 0 0 1 1336.615 -490)"/>
</svg>
